<svg xmlns="http://www.w3.org/2000/svg" viewBox="0 0 200 320" width="200" height="320">
  <defs>
    <linearGradient id="skf" x1="0" y1="0" x2="0" y2="1">
      <stop offset="0%" stop-color="#FFE0C4"/>
      <stop offset="100%" stop-color="#F0C0A0"/>
    </linearGradient>
  </defs>
  <rect x="80" y="202" width="16" height="56" rx="8" fill="url(#skf)" stroke="#3D2914" stroke-width="2"/>
  <rect x="104" y="202" width="16" height="56" rx="8" fill="url(#skf)" stroke="#3D2914" stroke-width="2"/>
  <circle cx="50" cy="176" r="9" fill="url(#skf)" stroke="#3D2914" stroke-width="2"/>
  <circle cx="150" cy="176" r="9" fill="url(#skf)" stroke="#3D2914" stroke-width="2"/>
  <rect x="44" y="118" width="14" height="56" rx="7" fill="url(#skf)" stroke="#3D2914" stroke-width="2"/>
  <rect x="142" y="118" width="14" height="56" rx="7" fill="url(#skf)" stroke="#3D2914" stroke-width="2"/>
  <path d="M76 112c0-8 8-14 24-14s24 6 24 14v90c0 10-8 16-24 16s-24-6-24-16V112z" fill="url(#skf)" stroke="#3D2914" stroke-width="2"/>
  <path d="M80 188h40c2 0 4 2 4 4v10H76v-10c0-2 2-4 4-4z" fill="#1A202C" stroke="#0D1117" stroke-width="2"/>
  <rect x="91" y="96" width="18" height="18" rx="6" fill="url(#skf)" stroke="#3D2914" stroke-width="2"/>
  <ellipse cx="100" cy="60" rx="40" ry="44" fill="url(#skf)" stroke="#3D2914" stroke-width="2.5"/>
  <ellipse cx="60" cy="64" rx="7" ry="9" fill="#F8D0B0" stroke="#3D2914" stroke-width="2"/>
  <ellipse cx="140" cy="64" rx="7" ry="9" fill="#F8D0B0" stroke="#3D2914" stroke-width="2"/>
</svg>
